<?xml version="1.0" encoding="UTF-8"?>
<svg xmlns="http://www.w3.org/2000/svg" xmlns:xlink="http://www.w3.org/1999/xlink" width="854" height="480" viewBox="0 0 854 480">
<defs>
<g>
<g id="glyph-0-0">
<path d="M 0.570312 -2.007812 L 1.742188 -3.179688 L 1.742188 -2.207031 L 4.921875 -2.207031 L 4.921875 -1.808594 L 1.742188 -1.808594 L 1.742188 -0.835938 Z "/>
</g>
<g id="glyph-1-0">
<rect x="0" y="0" width="0" height="0" mask="url(#mask-0)"/>
</g>
<g id="glyph-1-1">
<path d="M 0.0898438 -0.140625 C 0.238281 -0.144531 0.347656 -0.167969 0.414062 -0.199219 C 0.523438 -0.257812 0.578125 -0.367188 0.578125 -0.53125 L 0.578125 -3.21875 C 0.578125 -3.382812 0.527344 -3.492188 0.421875 -3.546875 C 0.359375 -3.582031 0.25 -3.605469 0.0898438 -3.613281 L 0.0898438 -3.753906 L 1.808594 -3.753906 C 2.136719 -3.753906 2.414062 -3.714844 2.632812 -3.640625 C 3.042969 -3.496094 3.25 -3.238281 3.25 -2.859375 C 3.25 -2.628906 3.167969 -2.449219 3 -2.3125 C 2.832031 -2.179688 2.648438 -2.09375 2.453125 -2.054688 L 2.453125 -2.003906 C 2.660156 -1.964844 2.839844 -1.898438 2.992188 -1.804688 C 3.289062 -1.621094 3.4375 -1.363281 3.4375 -1.035156 C 3.4375 -0.726562 3.296875 -0.476562 3.011719 -0.285156 C 2.726562 -0.09375 2.347656 0 1.878906 0 L 0.0898438 0 Z M 1.464844 -2.070312 C 1.808594 -2.070312 2.039062 -2.125 2.15625 -2.238281 C 2.273438 -2.351562 2.332031 -2.550781 2.332031 -2.835938 C 2.332031 -3.046875 2.292969 -3.222656 2.21875 -3.371094 C 2.140625 -3.515625 1.992188 -3.585938 1.773438 -3.585938 C 1.65625 -3.585938 1.578125 -3.566406 1.53125 -3.527344 C 1.488281 -3.488281 1.464844 -3.417969 1.464844 -3.316406 Z M 1.464844 -0.511719 C 1.464844 -0.414062 1.480469 -0.34375 1.507812 -0.296875 C 1.554688 -0.21875 1.640625 -0.179688 1.769531 -0.179688 C 2.03125 -0.179688 2.214844 -0.25 2.320312 -0.394531 C 2.425781 -0.535156 2.480469 -0.738281 2.480469 -1.003906 C 2.480469 -1.398438 2.363281 -1.660156 2.128906 -1.789062 C 1.988281 -1.871094 1.765625 -1.90625 1.464844 -1.902344 Z "/>
</g>
<g id="glyph-1-2">
<path d="M 0.332031 -3.40625 C 0.332031 -3.527344 0.375 -3.628906 0.460938 -3.710938 C 0.542969 -3.796875 0.644531 -3.839844 0.765625 -3.839844 C 0.882812 -3.839844 0.984375 -3.796875 1.066406 -3.710938 C 1.152344 -3.628906 1.195312 -3.527344 1.195312 -3.40625 C 1.195312 -3.289062 1.152344 -3.1875 1.066406 -3.101562 C 0.984375 -3.019531 0.882812 -2.976562 0.765625 -2.976562 C 0.644531 -2.976562 0.542969 -3.019531 0.460938 -3.101562 C 0.375 -3.1875 0.332031 -3.289062 0.332031 -3.40625 Z M 0.0898438 -0.132812 C 0.1875 -0.148438 0.253906 -0.171875 0.289062 -0.207031 C 0.34375 -0.253906 0.371094 -0.34375 0.371094 -0.46875 L 0.371094 -2.101562 C 0.371094 -2.214844 0.351562 -2.289062 0.316406 -2.332031 C 0.277344 -2.371094 0.203125 -2.402344 0.0898438 -2.421875 L 0.0898438 -2.558594 L 1.15625 -2.558594 L 1.15625 -0.449219 C 1.15625 -0.328125 1.171875 -0.25 1.210938 -0.214844 C 1.246094 -0.179688 1.3125 -0.152344 1.414062 -0.132812 L 1.414062 0 L 0.0898438 0 Z "/>
</g>
<g id="glyph-1-3">
<path d="M 0.0898438 -2.3125 L 0.0898438 -2.46875 C 0.136719 -2.515625 0.199219 -2.566406 0.269531 -2.628906 C 0.367188 -2.71875 0.457031 -2.808594 0.542969 -2.902344 C 0.710938 -3.085938 0.863281 -3.285156 1 -3.496094 L 1.140625 -3.496094 L 1.140625 -2.558594 L 1.671875 -2.558594 L 1.671875 -2.3125 L 1.140625 -2.3125 L 1.140625 -0.644531 C 1.140625 -0.566406 1.152344 -0.5 1.175781 -0.449219 C 1.214844 -0.367188 1.273438 -0.324219 1.355469 -0.324219 C 1.429688 -0.324219 1.488281 -0.351562 1.539062 -0.402344 C 1.585938 -0.453125 1.636719 -0.523438 1.683594 -0.617188 L 1.816406 -0.550781 C 1.753906 -0.398438 1.675781 -0.273438 1.585938 -0.179688 C 1.425781 -0.0117188 1.230469 0.0742188 1 0.0742188 C 0.871094 0.0742188 0.757812 0.0507812 0.660156 0 C 0.472656 -0.09375 0.378906 -0.265625 0.378906 -0.511719 L 0.378906 -2.3125 Z "/>
</g>
<g id="glyph-1-4">
<path d="M 0.0898438 -0.140625 C 0.25 -0.144531 0.363281 -0.167969 0.429688 -0.207031 C 0.53125 -0.265625 0.582031 -0.371094 0.582031 -0.53125 L 0.582031 -3.21875 C 0.582031 -3.378906 0.53125 -3.488281 0.429688 -3.546875 C 0.371094 -3.582031 0.257812 -3.601562 0.0898438 -3.613281 L 0.0898438 -3.753906 L 3.238281 -3.753906 L 3.238281 -2.632812 L 3.101562 -2.632812 C 3.035156 -2.980469 2.917969 -3.222656 2.757812 -3.359375 C 2.59375 -3.496094 2.292969 -3.566406 1.855469 -3.566406 C 1.691406 -3.566406 1.589844 -3.546875 1.542969 -3.511719 C 1.5 -3.472656 1.476562 -3.40625 1.476562 -3.304688 L 1.476562 -2.019531 C 1.777344 -2.011719 1.980469 -2.074219 2.085938 -2.207031 C 2.191406 -2.339844 2.273438 -2.550781 2.328125 -2.839844 L 2.46875 -2.839844 L 2.46875 -0.964844 L 2.328125 -0.964844 C 2.289062 -1.265625 2.214844 -1.480469 2.097656 -1.621094 C 1.984375 -1.757812 1.777344 -1.824219 1.476562 -1.824219 L 1.476562 -0.53125 C 1.476562 -0.359375 1.527344 -0.25 1.628906 -0.203125 C 1.730469 -0.15625 1.882812 -0.136719 2.089844 -0.140625 L 2.089844 0 L 0.0898438 0 Z "/>
</g>
<g id="glyph-1-5">
<path d="M 0.0898438 -0.132812 C 0.1875 -0.15625 0.257812 -0.1875 0.296875 -0.226562 C 0.335938 -0.265625 0.359375 -0.347656 0.359375 -0.46875 L 0.359375 -3.296875 C 0.359375 -3.414062 0.339844 -3.492188 0.300781 -3.527344 C 0.261719 -3.566406 0.191406 -3.59375 0.0898438 -3.617188 L 0.0898438 -3.753906 L 1.140625 -3.753906 L 1.140625 -0.46875 C 1.140625 -0.347656 1.160156 -0.265625 1.203125 -0.226562 C 1.242188 -0.191406 1.3125 -0.160156 1.414062 -0.132812 L 1.414062 0 L 0.0898438 0 Z "/>
</g>
<g id="glyph-1-6">
<path d="M 1.625 -0.230469 C 1.824219 -0.230469 1.960938 -0.363281 2.03125 -0.628906 C 2.070312 -0.777344 2.089844 -0.988281 2.089844 -1.261719 C 2.089844 -1.578125 2.058594 -1.832031 2.003906 -2.023438 C 1.945312 -2.210938 1.828125 -2.304688 1.648438 -2.304688 C 1.53125 -2.304688 1.421875 -2.253906 1.328125 -2.148438 C 1.234375 -2.042969 1.1875 -1.96875 1.1875 -1.921875 L 1.1875 -0.570312 C 1.1875 -0.515625 1.234375 -0.445312 1.324219 -0.359375 C 1.414062 -0.273438 1.511719 -0.230469 1.625 -0.230469 Z M 0.101562 1.011719 C 0.21875 1 0.300781 0.972656 0.34375 0.929688 C 0.386719 0.886719 0.410156 0.804688 0.410156 0.6875 L 0.410156 -2.101562 C 0.410156 -2.21875 0.390625 -2.296875 0.347656 -2.335938 C 0.308594 -2.378906 0.230469 -2.40625 0.113281 -2.421875 L 0.113281 -2.558594 L 1.175781 -2.558594 L 1.175781 -2.191406 C 1.25 -2.316406 1.324219 -2.410156 1.398438 -2.472656 C 1.527344 -2.578125 1.695312 -2.628906 1.894531 -2.628906 C 2.1875 -2.628906 2.429688 -2.519531 2.621094 -2.300781 C 2.8125 -2.082031 2.910156 -1.753906 2.910156 -1.320312 C 2.910156 -0.917969 2.808594 -0.582031 2.601562 -0.320312 C 2.394531 -0.0546875 2.140625 0.078125 1.84375 0.078125 C 1.691406 0.078125 1.550781 0.0351562 1.414062 -0.0546875 C 1.339844 -0.101562 1.265625 -0.167969 1.1875 -0.253906 L 1.1875 0.214844 C 1.191406 0.464844 1.191406 0.605469 1.195312 0.636719 C 1.207031 0.78125 1.242188 0.882812 1.304688 0.9375 C 1.367188 0.992188 1.472656 1.023438 1.621094 1.03125 L 1.621094 1.144531 L 0.101562 1.144531 Z "/>
</g>
<g id="glyph-1-7">
<path d="M 0.140625 -0.839844 L 0.296875 -0.839844 C 0.351562 -0.574219 0.453125 -0.386719 0.597656 -0.277344 C 0.746094 -0.167969 0.898438 -0.113281 1.054688 -0.113281 C 1.199219 -0.113281 1.304688 -0.144531 1.371094 -0.210938 C 1.4375 -0.273438 1.46875 -0.359375 1.46875 -0.464844 C 1.46875 -0.5625 1.433594 -0.648438 1.363281 -0.71875 C 1.324219 -0.757812 1.257812 -0.796875 1.167969 -0.839844 L 0.757812 -1.042969 C 0.539062 -1.148438 0.382812 -1.265625 0.289062 -1.390625 C 0.195312 -1.515625 0.148438 -1.660156 0.148438 -1.832031 C 0.148438 -2.046875 0.222656 -2.230469 0.371094 -2.386719 C 0.523438 -2.542969 0.730469 -2.625 1 -2.625 C 1.117188 -2.625 1.242188 -2.605469 1.375 -2.566406 C 1.507812 -2.527344 1.589844 -2.507812 1.621094 -2.507812 C 1.667969 -2.507812 1.699219 -2.515625 1.71875 -2.535156 C 1.738281 -2.554688 1.753906 -2.582031 1.765625 -2.613281 L 1.886719 -2.613281 L 1.886719 -1.8125 L 1.746094 -1.8125 C 1.695312 -2 1.609375 -2.152344 1.488281 -2.265625 C 1.371094 -2.378906 1.230469 -2.4375 1.070312 -2.4375 C 0.949219 -2.4375 0.855469 -2.402344 0.796875 -2.332031 C 0.734375 -2.265625 0.707031 -2.191406 0.707031 -2.109375 C 0.707031 -2.046875 0.734375 -1.980469 0.785156 -1.914062 C 0.839844 -1.847656 0.9375 -1.78125 1.085938 -1.710938 L 1.390625 -1.5625 C 1.578125 -1.472656 1.714844 -1.382812 1.800781 -1.300781 C 1.945312 -1.15625 2.019531 -0.976562 2.019531 -0.765625 C 2.019531 -0.558594 1.945312 -0.367188 1.792969 -0.1875 C 1.644531 -0.0117188 1.421875 0.078125 1.125 0.078125 C 1.050781 0.078125 0.972656 0.0703125 0.898438 0.0546875 C 0.824219 0.0390625 0.730469 0.0117188 0.621094 -0.0234375 L 0.527344 -0.0585938 C 0.492188 -0.0703125 0.46875 -0.078125 0.460938 -0.078125 C 0.453125 -0.0820312 0.445312 -0.0820312 0.429688 -0.0820312 C 0.398438 -0.0820312 0.375 -0.0703125 0.351562 -0.0429688 C 0.328125 -0.0195312 0.304688 0.0195312 0.273438 0.078125 L 0.140625 0.078125 Z "/>
</g>
<g id="glyph-1-8">
<path d="M 0.441406 -0.390625 C 0.441406 -0.519531 0.488281 -0.632812 0.578125 -0.722656 C 0.671875 -0.8125 0.78125 -0.859375 0.910156 -0.859375 C 1.042969 -0.859375 1.152344 -0.8125 1.242188 -0.722656 C 1.335938 -0.632812 1.378906 -0.519531 1.378906 -0.390625 C 1.378906 -0.261719 1.335938 -0.148438 1.242188 -0.0585938 C 1.152344 0.03125 1.042969 0.078125 0.910156 0.078125 C 0.78125 0.078125 0.671875 0.03125 0.578125 -0.0585938 C 0.488281 -0.148438 0.441406 -0.261719 0.441406 -0.390625 Z M 0.441406 -3.273438 C 0.441406 -3.476562 0.488281 -3.625 0.582031 -3.710938 C 0.675781 -3.796875 0.785156 -3.839844 0.910156 -3.839844 C 1.035156 -3.839844 1.144531 -3.796875 1.238281 -3.710938 C 1.332031 -3.625 1.378906 -3.484375 1.378906 -3.289062 C 1.378906 -3.230469 1.367188 -3.136719 1.335938 -3.011719 C 1.304688 -2.886719 1.253906 -2.6875 1.175781 -2.402344 C 1.128906 -2.234375 1.09375 -2.09375 1.078125 -1.980469 C 1.0625 -1.867188 1.035156 -1.636719 0.996094 -1.296875 L 0.835938 -1.296875 C 0.785156 -1.726562 0.746094 -1.992188 0.730469 -2.09375 C 0.710938 -2.195312 0.675781 -2.335938 0.621094 -2.519531 C 0.550781 -2.753906 0.507812 -2.910156 0.488281 -2.988281 C 0.457031 -3.109375 0.441406 -3.203125 0.441406 -3.273438 Z "/>
</g>
</g>
<image id="source-203" x="0" y="0" width="0" height="0"/>
<mask id="mask-0">
<use xlink:href="#source-203"/>
</mask>
</defs>
<g fill="rgb(96.862745%, 85.098039%, 43.529412%)" fill-opacity="1">
<use xlink:href="#glyph-0-0" x="30" y="25.371094"/>
</g>
<g fill="rgb(96.862745%, 85.098039%, 43.529412%)" fill-opacity="1">
<use xlink:href="#glyph-1-0" x="36" y="25.371094"/>
<use xlink:href="#glyph-1-1" x="37" y="25.371094"/>
<use xlink:href="#glyph-1-2" x="41" y="25.371094"/>
<use xlink:href="#glyph-1-3" x="43" y="25.371094"/>
<use xlink:href="#glyph-1-0" x="45" y="25.371094"/>
<use xlink:href="#glyph-1-4" x="46" y="25.371094"/>
<use xlink:href="#glyph-1-5" x="49" y="25.371094"/>
<use xlink:href="#glyph-1-2" x="51" y="25.371094"/>
<use xlink:href="#glyph-1-6" x="53" y="25.371094"/>
<use xlink:href="#glyph-1-7" x="56" y="25.371094"/>
<use xlink:href="#glyph-1-8" x="58" y="25.371094"/>
</g>
</svg>
