<?xml version="1.0" encoding="UTF-8"?>
<svg xmlns="http://www.w3.org/2000/svg" xmlns:xlink="http://www.w3.org/1999/xlink" width="854" height="480" viewBox="0 0 854 480">
<defs>
<g>
<g id="glyph-0-0">
<path d="M 0.367188 -2.464844 L 0.671875 -2.464844 C 0.84375 -1.675781 1.121094 -1.105469 1.503906 -0.746094 C 1.886719 -0.390625 2.324219 -0.210938 2.820312 -0.210938 C 3.300781 -0.210938 3.640625 -0.335938 3.84375 -0.578125 C 4.046875 -0.824219 4.148438 -1.085938 4.148438 -1.355469 C 4.148438 -1.671875 4.042969 -1.929688 3.828125 -2.128906 C 3.6875 -2.257812 3.40625 -2.429688 2.980469 -2.640625 L 2.292969 -2.980469 C 1.613281 -3.316406 1.132812 -3.648438 0.855469 -3.980469 C 0.578125 -4.308594 0.4375 -4.714844 0.4375 -5.199219 C 0.4375 -5.714844 0.621094 -6.195312 0.992188 -6.644531 C 1.363281 -7.089844 1.925781 -7.3125 2.691406 -7.3125 C 3.078125 -7.3125 3.453125 -7.253906 3.816406 -7.136719 C 4.179688 -7.019531 4.386719 -6.964844 4.4375 -6.964844 C 4.554688 -6.964844 4.636719 -6.996094 4.679688 -7.0625 C 4.722656 -7.128906 4.761719 -7.21875 4.789062 -7.328125 L 5.101562 -7.328125 L 5.101562 -5.03125 L 4.808594 -5.03125 C 4.667969 -5.5625 4.417969 -6.023438 4.0625 -6.40625 C 3.707031 -6.792969 3.277344 -6.984375 2.769531 -6.984375 C 2.410156 -6.984375 2.128906 -6.886719 1.917969 -6.691406 C 1.710938 -6.5 1.609375 -6.261719 1.609375 -5.984375 C 1.609375 -5.652344 1.707031 -5.402344 1.902344 -5.238281 C 2.09375 -5.070312 2.523438 -4.820312 3.183594 -4.496094 L 3.980469 -4.101562 C 4.332031 -3.925781 4.613281 -3.734375 4.824219 -3.519531 C 5.214844 -3.121094 5.410156 -2.636719 5.410156 -2.066406 C 5.410156 -1.535156 5.203125 -1.03125 4.78125 -0.558594 C 4.359375 -0.0859375 3.683594 0.148438 2.757812 0.148438 C 2.542969 0.148438 2.328125 0.128906 2.109375 0.0898438 C 1.890625 0.0507812 1.675781 -0.0117188 1.464844 -0.09375 L 1.257812 -0.171875 C 1.210938 -0.183594 1.164062 -0.195312 1.117188 -0.203125 C 1.074219 -0.210938 1.035156 -0.214844 1.003906 -0.214844 C 0.894531 -0.214844 0.820312 -0.183594 0.777344 -0.121094 C 0.738281 -0.0585938 0.699219 0.03125 0.671875 0.148438 L 0.367188 0.148438 Z "/>
</g>
<g id="glyph-0-1">
<path d="M 0.171875 -0.253906 C 0.363281 -0.277344 0.503906 -0.328125 0.59375 -0.410156 C 0.6875 -0.492188 0.730469 -0.652344 0.730469 -0.890625 L 0.730469 -6.265625 C 0.730469 -6.476562 0.695312 -6.625 0.617188 -6.707031 C 0.542969 -6.792969 0.394531 -6.847656 0.171875 -6.875 L 0.171875 -7.132812 L 2.210938 -7.132812 L 2.210938 -4.164062 C 2.425781 -4.425781 2.65625 -4.628906 2.894531 -4.769531 C 3.132812 -4.914062 3.402344 -4.984375 3.699219 -4.984375 C 4.105469 -4.984375 4.441406 -4.867188 4.707031 -4.632812 C 4.972656 -4.394531 5.101562 -3.996094 5.101562 -3.425781 L 5.101562 -0.890625 C 5.101562 -0.652344 5.144531 -0.5 5.222656 -0.425781 C 5.304688 -0.351562 5.4375 -0.292969 5.628906 -0.253906 L 5.628906 0 L 3.148438 0 L 3.148438 -0.253906 C 3.339844 -0.289062 3.46875 -0.34375 3.535156 -0.40625 C 3.605469 -0.472656 3.640625 -0.621094 3.640625 -0.851562 L 3.640625 -3.40625 C 3.640625 -3.648438 3.613281 -3.828125 3.566406 -3.949219 C 3.484375 -4.164062 3.320312 -4.273438 3.078125 -4.273438 C 2.894531 -4.273438 2.707031 -4.1875 2.511719 -4.019531 C 2.316406 -3.851562 2.222656 -3.738281 2.222656 -3.675781 L 2.222656 -0.851562 C 2.222656 -0.621094 2.253906 -0.472656 2.324219 -0.40625 C 2.394531 -0.339844 2.523438 -0.289062 2.710938 -0.253906 L 2.710938 0 L 0.171875 0 Z "/>
</g>
<g id="glyph-0-2">
<path d="M 2.3125 -0.601562 C 2.484375 -0.601562 2.644531 -0.65625 2.792969 -0.757812 C 2.875 -0.820312 2.972656 -0.914062 3.085938 -1.046875 L 3.085938 -2.585938 C 2.804688 -2.519531 2.558594 -2.410156 2.34375 -2.261719 C 1.984375 -2.011719 1.804688 -1.691406 1.804688 -1.304688 C 1.804688 -1.074219 1.855469 -0.898438 1.960938 -0.78125 C 2.066406 -0.664062 2.183594 -0.601562 2.3125 -0.601562 Z M 0.269531 -0.984375 C 0.269531 -1.457031 0.496094 -1.835938 0.953125 -2.113281 C 1.410156 -2.390625 2.125 -2.671875 3.101562 -2.953125 L 3.101562 -3.722656 C 3.101562 -4.035156 3.035156 -4.265625 2.90625 -4.414062 C 2.773438 -4.5625 2.539062 -4.640625 2.199219 -4.640625 C 2.011719 -4.640625 1.855469 -4.601562 1.734375 -4.53125 C 1.613281 -4.460938 1.550781 -4.375 1.550781 -4.269531 C 1.550781 -4.226562 1.558594 -4.191406 1.570312 -4.164062 C 1.585938 -4.136719 1.605469 -4.109375 1.632812 -4.078125 L 1.695312 -4.003906 C 1.742188 -3.945312 1.78125 -3.882812 1.8125 -3.8125 C 1.839844 -3.742188 1.855469 -3.667969 1.855469 -3.585938 C 1.855469 -3.386719 1.789062 -3.234375 1.65625 -3.125 C 1.523438 -3.015625 1.371094 -2.964844 1.195312 -2.964844 C 0.992188 -2.964844 0.820312 -3.023438 0.679688 -3.144531 C 0.535156 -3.265625 0.464844 -3.4375 0.464844 -3.664062 C 0.464844 -4.070312 0.65625 -4.390625 1.035156 -4.628906 C 1.417969 -4.867188 1.886719 -4.984375 2.441406 -4.984375 C 3.039062 -4.984375 3.539062 -4.867188 3.941406 -4.640625 C 4.339844 -4.40625 4.539062 -3.976562 4.539062 -3.351562 L 4.539062 -0.792969 C 4.539062 -0.71875 4.5625 -0.652344 4.601562 -0.601562 C 4.640625 -0.546875 4.683594 -0.519531 4.730469 -0.519531 C 4.773438 -0.519531 4.808594 -0.527344 4.84375 -0.542969 C 4.875 -0.558594 4.925781 -0.601562 4.996094 -0.671875 L 5.152344 -0.449219 C 4.949219 -0.207031 4.71875 -0.0390625 4.46875 0.0585938 C 4.3125 0.121094 4.144531 0.148438 3.96875 0.148438 C 3.65625 0.148438 3.425781 0.0585938 3.28125 -0.125 C 3.199219 -0.226562 3.140625 -0.378906 3.101562 -0.582031 C 2.808594 -0.289062 2.480469 -0.0859375 2.113281 0.0351562 C 1.890625 0.113281 1.671875 0.148438 1.453125 0.148438 C 1.164062 0.148438 0.894531 0.0585938 0.644531 -0.125 C 0.394531 -0.308594 0.269531 -0.597656 0.269531 -0.984375 Z "/>
</g>
<g id="glyph-0-3">
<path d="M 0.171875 -0.253906 C 0.363281 -0.277344 0.503906 -0.328125 0.59375 -0.410156 C 0.6875 -0.492188 0.730469 -0.652344 0.730469 -0.890625 L 0.730469 -3.996094 C 0.730469 -4.207031 0.695312 -4.355469 0.621094 -4.4375 C 0.546875 -4.519531 0.398438 -4.574219 0.171875 -4.601562 L 0.171875 -4.859375 L 2.167969 -4.859375 L 2.167969 -4.101562 C 2.335938 -4.355469 2.550781 -4.566406 2.8125 -4.734375 C 3.070312 -4.902344 3.359375 -4.984375 3.675781 -4.984375 C 4.128906 -4.984375 4.480469 -4.867188 4.730469 -4.632812 C 4.980469 -4.398438 5.101562 -3.988281 5.101562 -3.402344 L 5.101562 -0.851562 C 5.101562 -0.613281 5.144531 -0.460938 5.222656 -0.390625 C 5.304688 -0.324219 5.4375 -0.277344 5.628906 -0.253906 L 5.628906 0 L 3.148438 0 L 3.148438 -0.253906 C 3.339844 -0.289062 3.46875 -0.34375 3.535156 -0.40625 C 3.605469 -0.472656 3.640625 -0.621094 3.640625 -0.851562 L 3.640625 -3.40625 C 3.640625 -3.648438 3.613281 -3.828125 3.566406 -3.949219 C 3.484375 -4.164062 3.320312 -4.273438 3.078125 -4.273438 C 2.894531 -4.273438 2.726562 -4.207031 2.574219 -4.074219 C 2.421875 -3.941406 2.304688 -3.808594 2.222656 -3.675781 L 2.222656 -0.851562 C 2.222656 -0.621094 2.253906 -0.472656 2.324219 -0.40625 C 2.394531 -0.339844 2.523438 -0.289062 2.710938 -0.253906 L 2.710938 0 L 0.171875 0 Z "/>
</g>
<g id="glyph-0-4">
<path d="M 0.230469 -2.417969 C 0.230469 -3.152344 0.457031 -3.765625 0.910156 -4.257812 C 1.363281 -4.75 1.929688 -4.996094 2.613281 -4.996094 C 3.3125 -4.996094 3.882812 -4.742188 4.328125 -4.242188 C 4.773438 -3.742188 4.996094 -3.132812 4.996094 -2.417969 C 4.996094 -1.714844 4.773438 -1.105469 4.335938 -0.601562 C 3.894531 -0.09375 3.320312 0.160156 2.613281 0.160156 C 1.925781 0.160156 1.355469 -0.0859375 0.90625 -0.578125 C 0.457031 -1.074219 0.230469 -1.683594 0.230469 -2.417969 Z M 1.785156 -2.417969 C 1.785156 -1.679688 1.820312 -1.160156 1.898438 -0.867188 C 2.015625 -0.410156 2.253906 -0.179688 2.613281 -0.179688 C 2.953125 -0.179688 3.175781 -0.355469 3.28125 -0.707031 C 3.390625 -1.058594 3.441406 -1.628906 3.441406 -2.417969 C 3.441406 -3.203125 3.386719 -3.773438 3.277344 -4.125 C 3.164062 -4.476562 2.945312 -4.652344 2.617188 -4.652344 C 2.261719 -4.652344 2.023438 -4.425781 1.902344 -3.96875 C 1.824219 -3.664062 1.785156 -3.144531 1.785156 -2.417969 Z "/>
</g>
<g id="glyph-0-5">
<rect x="0" y="0" width="0" height="0" mask="url(#mask-0)"/>
</g>
<g id="glyph-0-6">
<path d="M 0.191406 -0.269531 C 0.480469 -0.277344 0.683594 -0.316406 0.808594 -0.382812 C 1.019531 -0.492188 1.125 -0.699219 1.125 -1.011719 L 1.125 -6.117188 C 1.125 -6.425781 1.023438 -6.636719 0.824219 -6.742188 C 0.707031 -6.808594 0.496094 -6.847656 0.191406 -6.867188 L 0.191406 -7.132812 L 3.882812 -7.132812 L 3.882812 -6.867188 C 3.453125 -6.851562 3.164062 -6.792969 3.023438 -6.683594 C 2.878906 -6.578125 2.808594 -6.316406 2.808594 -5.894531 L 2.808594 -0.914062 C 2.808594 -0.679688 2.871094 -0.523438 2.992188 -0.449219 C 3.113281 -0.375 3.351562 -0.335938 3.707031 -0.335938 C 4.34375 -0.335938 4.875 -0.476562 5.304688 -0.753906 C 5.738281 -1.035156 6.109375 -1.582031 6.421875 -2.390625 L 6.730469 -2.390625 L 6.304688 0 L 0.191406 0 Z "/>
</g>
<g id="glyph-0-7">
<path d="M 0.632812 -6.472656 C 0.632812 -6.699219 0.714844 -6.894531 0.875 -7.054688 C 1.035156 -7.214844 1.226562 -7.292969 1.453125 -7.292969 C 1.675781 -7.292969 1.867188 -7.214844 2.027344 -7.054688 C 2.1875 -6.894531 2.269531 -6.699219 2.269531 -6.472656 C 2.269531 -6.246094 2.1875 -6.054688 2.027344 -5.894531 C 1.867188 -5.734375 1.675781 -5.652344 1.453125 -5.652344 C 1.226562 -5.652344 1.035156 -5.734375 0.875 -5.894531 C 0.714844 -6.054688 0.632812 -6.246094 0.632812 -6.472656 Z M 0.171875 -0.253906 C 0.355469 -0.285156 0.484375 -0.328125 0.550781 -0.390625 C 0.65625 -0.484375 0.707031 -0.652344 0.707031 -0.890625 L 0.707031 -3.996094 C 0.707031 -4.207031 0.671875 -4.351562 0.597656 -4.429688 C 0.527344 -4.507812 0.382812 -4.566406 0.171875 -4.601562 L 0.171875 -4.859375 L 2.195312 -4.859375 L 2.195312 -0.851562 C 2.195312 -0.621094 2.230469 -0.472656 2.296875 -0.40625 C 2.367188 -0.339844 2.496094 -0.289062 2.683594 -0.253906 L 2.683594 0 L 0.171875 0 Z "/>
</g>
<g id="glyph-0-8">
<path d="M 0.171875 -0.253906 C 0.363281 -0.277344 0.496094 -0.316406 0.566406 -0.375 C 0.683594 -0.46875 0.742188 -0.640625 0.742188 -0.890625 L 0.742188 -3.996094 C 0.742188 -4.214844 0.703125 -4.363281 0.625 -4.441406 C 0.546875 -4.519531 0.394531 -4.574219 0.171875 -4.601562 L 0.171875 -4.859375 L 2.167969 -4.859375 L 2.167969 -4.101562 C 2.34375 -4.332031 2.515625 -4.511719 2.679688 -4.640625 C 2.984375 -4.871094 3.324219 -4.984375 3.699219 -4.984375 C 4.121094 -4.984375 4.453125 -4.882812 4.683594 -4.683594 C 4.816406 -4.570312 4.9375 -4.386719 5.054688 -4.128906 L 5.128906 -4.128906 C 5.328125 -4.371094 5.519531 -4.554688 5.699219 -4.679688 C 5.988281 -4.882812 6.304688 -4.984375 6.644531 -4.984375 C 7.015625 -4.984375 7.34375 -4.867188 7.625 -4.628906 C 7.910156 -4.390625 8.050781 -4.015625 8.050781 -3.503906 L 8.050781 -0.851562 C 8.050781 -0.605469 8.089844 -0.449219 8.167969 -0.382812 C 8.246094 -0.316406 8.386719 -0.273438 8.585938 -0.253906 L 8.585938 0 L 6.082031 0 L 6.082031 -0.253906 C 6.273438 -0.28125 6.410156 -0.328125 6.484375 -0.394531 C 6.558594 -0.460938 6.597656 -0.613281 6.597656 -0.851562 L 6.597656 -3.40625 C 6.597656 -3.679688 6.558594 -3.894531 6.476562 -4.046875 C 6.394531 -4.199219 6.242188 -4.273438 6.015625 -4.273438 C 5.832031 -4.273438 5.640625 -4.1875 5.441406 -4.023438 C 5.238281 -3.855469 5.136719 -3.738281 5.136719 -3.675781 L 5.136719 -0.851562 C 5.136719 -0.621094 5.171875 -0.472656 5.242188 -0.40625 C 5.3125 -0.339844 5.4375 -0.289062 5.628906 -0.253906 L 5.628906 0 L 3.160156 0 L 3.160156 -0.253906 C 3.34375 -0.277344 3.476562 -0.320312 3.554688 -0.390625 C 3.636719 -0.457031 3.675781 -0.609375 3.675781 -0.851562 L 3.675781 -3.40625 C 3.675781 -3.675781 3.636719 -3.886719 3.5625 -4.039062 C 3.484375 -4.195312 3.328125 -4.273438 3.09375 -4.273438 C 2.875 -4.273438 2.675781 -4.183594 2.488281 -4.007812 C 2.304688 -3.832031 2.210938 -3.71875 2.210938 -3.675781 L 2.210938 -0.851562 C 2.210938 -0.621094 2.242188 -0.472656 2.308594 -0.40625 C 2.375 -0.339844 2.503906 -0.289062 2.695312 -0.253906 L 2.695312 0 L 0.171875 0 Z "/>
</g>
<g id="glyph-0-9">
<path d="M 0.171875 -4.394531 L 0.171875 -4.691406 C 0.261719 -4.777344 0.378906 -4.878906 0.515625 -4.996094 C 0.699219 -5.164062 0.871094 -5.335938 1.03125 -5.515625 C 1.351562 -5.867188 1.640625 -6.242188 1.902344 -6.644531 L 2.167969 -6.644531 L 2.167969 -4.859375 L 3.175781 -4.859375 L 3.175781 -4.394531 L 2.167969 -4.394531 L 2.167969 -1.222656 C 2.167969 -1.074219 2.191406 -0.949219 2.238281 -0.851562 C 2.304688 -0.695312 2.417969 -0.617188 2.578125 -0.617188 C 2.714844 -0.617188 2.828125 -0.667969 2.921875 -0.765625 C 3.015625 -0.863281 3.109375 -1 3.199219 -1.171875 L 3.453125 -1.046875 C 3.328125 -0.757812 3.183594 -0.523438 3.011719 -0.339844 C 2.707031 -0.0195312 2.339844 0.140625 1.902344 0.140625 C 1.65625 0.140625 1.4375 0.09375 1.253906 0 C 0.894531 -0.179688 0.714844 -0.503906 0.714844 -0.972656 L 0.714844 -4.394531 Z "/>
</g>
</g>
<image id="source-118" x="0" y="0" width="0" height="0"/>
<mask id="mask-0">
<use xlink:href="#source-118"/>
</mask>
</defs>
<g fill="rgb(96.862745%, 85.098039%, 43.529412%)" fill-opacity="1">
<use xlink:href="#glyph-0-0" x="30" y="27.916992"/>
<use xlink:href="#glyph-0-1" x="36" y="27.916992"/>
<use xlink:href="#glyph-0-2" x="42" y="27.916992"/>
<use xlink:href="#glyph-0-3" x="47" y="27.916992"/>
<use xlink:href="#glyph-0-3" x="53" y="27.916992"/>
<use xlink:href="#glyph-0-4" x="59" y="27.916992"/>
<use xlink:href="#glyph-0-3" x="64" y="27.916992"/>
<use xlink:href="#glyph-0-5" x="70" y="27.916992"/>
<use xlink:href="#glyph-0-6" x="73" y="27.916992"/>
<use xlink:href="#glyph-0-7" x="80" y="27.916992"/>
<use xlink:href="#glyph-0-8" x="83" y="27.916992"/>
<use xlink:href="#glyph-0-7" x="92" y="27.916992"/>
<use xlink:href="#glyph-0-9" x="95" y="27.916992"/>
</g>
</svg>
