<?xml version="1.0" encoding="UTF-8"?>
<svg xmlns="http://www.w3.org/2000/svg" xmlns:xlink="http://www.w3.org/1999/xlink" width="854" height="480" viewBox="0 0 854 480">
<defs>
<g>
<g id="glyph-0-0">
<path d="M 0.226562 -1.5 L 1.660156 -1.5 L 1.660156 -1.132812 L 0.226562 -1.132812 Z "/>
</g>
<g id="glyph-0-1">
<rect x="0" y="0" width="0" height="0" mask="url(#mask-0)"/>
</g>
<g id="glyph-0-2">
<path d="M 0.0664062 -0.105469 C 0.308594 -0.128906 0.460938 -0.183594 0.53125 -0.269531 C 0.597656 -0.355469 0.632812 -0.550781 0.632812 -0.855469 L 0.632812 -3.226562 C 0.632812 -3.4375 0.597656 -3.574219 0.53125 -3.636719 C 0.464844 -3.703125 0.316406 -3.738281 0.078125 -3.75 L 0.078125 -3.859375 L 1.234375 -3.859375 L 2.582031 -0.917969 L 3.875 -3.859375 L 5.035156 -3.859375 L 5.035156 -3.75 C 4.820312 -3.734375 4.679688 -3.695312 4.617188 -3.632812 C 4.554688 -3.570312 4.523438 -3.433594 4.523438 -3.226562 L 4.523438 -0.632812 C 4.523438 -0.417969 4.554688 -0.285156 4.617188 -0.222656 C 4.679688 -0.164062 4.820312 -0.125 5.035156 -0.105469 L 5.035156 0 L 3.402344 0 L 3.402344 -0.105469 C 3.636719 -0.125 3.78125 -0.167969 3.839844 -0.230469 C 3.898438 -0.296875 3.925781 -0.453125 3.925781 -0.699219 L 3.925781 -3.320312 L 2.433594 0 L 2.355469 0 L 0.886719 -3.183594 L 0.886719 -0.855469 C 0.886719 -0.539062 0.933594 -0.332031 1.027344 -0.234375 C 1.089844 -0.171875 1.226562 -0.128906 1.433594 -0.105469 L 1.433594 0 L 0.0664062 0 Z "/>
</g>
<g id="glyph-0-3">
<path d="M 0.902344 -2.636719 L 0.902344 -0.816406 C 0.902344 -0.6875 0.921875 -0.582031 0.957031 -0.503906 C 1.027344 -0.359375 1.15625 -0.289062 1.34375 -0.289062 C 1.472656 -0.289062 1.601562 -0.332031 1.722656 -0.414062 C 1.792969 -0.460938 1.863281 -0.527344 1.9375 -0.613281 L 1.9375 -2.171875 C 1.9375 -2.320312 1.910156 -2.414062 1.851562 -2.460938 C 1.792969 -2.507812 1.679688 -2.535156 1.507812 -2.542969 L 1.507812 -2.636719 L 2.429688 -2.636719 L 2.429688 -0.632812 C 2.429688 -0.503906 2.453125 -0.414062 2.5 -0.367188 C 2.546875 -0.316406 2.644531 -0.296875 2.792969 -0.300781 L 2.792969 -0.222656 C 2.6875 -0.195312 2.613281 -0.171875 2.5625 -0.15625 C 2.515625 -0.144531 2.429688 -0.117188 2.316406 -0.078125 C 2.265625 -0.0625 2.15625 -0.0234375 1.992188 0.0429688 C 1.980469 0.0429688 1.976562 0.0390625 1.972656 0.03125 C 1.972656 0.0234375 1.972656 0.0117188 1.972656 0 L 1.972656 -0.457031 C 1.84375 -0.304688 1.722656 -0.191406 1.617188 -0.117188 C 1.457031 -0.00390625 1.285156 0.0546875 1.105469 0.0546875 C 0.941406 0.0546875 0.785156 -0.00390625 0.636719 -0.121094 C 0.488281 -0.238281 0.414062 -0.433594 0.414062 -0.707031 L 0.414062 -2.183594 C 0.414062 -2.335938 0.382812 -2.4375 0.320312 -2.488281 C 0.277344 -2.519531 0.1875 -2.542969 0.0507812 -2.558594 L 0.0507812 -2.636719 Z "/>
</g>
<g id="glyph-0-4">
<path d="M 1.484375 -2.625 L 1.484375 -2.421875 L 0.902344 -2.421875 L 0.898438 -0.78125 C 0.898438 -0.636719 0.910156 -0.527344 0.933594 -0.453125 C 0.980469 -0.320312 1.070312 -0.257812 1.203125 -0.257812 C 1.269531 -0.257812 1.328125 -0.273438 1.378906 -0.304688 C 1.429688 -0.335938 1.488281 -0.386719 1.550781 -0.457031 L 1.625 -0.394531 L 1.5625 -0.308594 C 1.464844 -0.175781 1.359375 -0.0820312 1.25 -0.0273438 C 1.140625 0.0273438 1.035156 0.0546875 0.929688 0.0546875 C 0.707031 0.0546875 0.554688 -0.046875 0.476562 -0.246094 C 0.433594 -0.355469 0.410156 -0.503906 0.410156 -0.695312 L 0.410156 -2.421875 L 0.101562 -2.421875 C 0.0898438 -2.425781 0.0820312 -2.433594 0.078125 -2.4375 C 0.0742188 -2.445312 0.0703125 -2.453125 0.0703125 -2.460938 C 0.0703125 -2.480469 0.0742188 -2.496094 0.0859375 -2.503906 C 0.09375 -2.515625 0.121094 -2.539062 0.164062 -2.578125 C 0.296875 -2.6875 0.390625 -2.773438 0.449219 -2.839844 C 0.507812 -2.90625 0.644531 -3.085938 0.855469 -3.375 C 0.882812 -3.375 0.898438 -3.375 0.902344 -3.371094 C 0.90625 -3.367188 0.910156 -3.351562 0.910156 -3.328125 L 0.910156 -2.625 Z "/>
</g>
<g id="glyph-0-5">
<path d="M 0.121094 -0.078125 C 0.296875 -0.0976562 0.414062 -0.132812 0.476562 -0.1875 C 0.539062 -0.242188 0.574219 -0.347656 0.574219 -0.503906 L 0.574219 -3.285156 C 0.574219 -3.410156 0.5625 -3.5 0.542969 -3.546875 C 0.503906 -3.625 0.425781 -3.664062 0.308594 -3.664062 C 0.285156 -3.664062 0.253906 -3.664062 0.222656 -3.65625 C 0.191406 -3.652344 0.152344 -3.644531 0.105469 -3.632812 L 0.105469 -3.726562 C 0.363281 -3.792969 0.671875 -3.886719 1.03125 -4 C 1.042969 -4 1.050781 -3.992188 1.054688 -3.980469 C 1.058594 -3.96875 1.058594 -3.945312 1.058594 -3.90625 L 1.058594 -0.492188 C 1.058594 -0.328125 1.089844 -0.222656 1.144531 -0.171875 C 1.203125 -0.125 1.320312 -0.09375 1.5 -0.078125 L 1.5 0 L 0.121094 0 Z "/>
</g>
<g id="glyph-0-6">
<path d="M 1.429688 -0.0585938 C 1.429688 0.132812 1.359375 0.308594 1.222656 0.476562 C 1.082031 0.640625 0.933594 0.757812 0.773438 0.832031 L 0.71875 0.71875 C 0.902344 0.617188 1.027344 0.503906 1.097656 0.382812 C 1.167969 0.265625 1.203125 0.164062 1.203125 0.0859375 C 1.203125 0.0585938 1.195312 0.0429688 1.175781 0.0351562 C 1.160156 0.0273438 1.140625 0.0234375 1.121094 0.0234375 L 0.929688 0.0429688 C 0.851562 0.0429688 0.777344 0.015625 0.710938 -0.0351562 C 0.644531 -0.0859375 0.613281 -0.164062 0.613281 -0.261719 C 0.613281 -0.335938 0.640625 -0.410156 0.695312 -0.484375 C 0.75 -0.554688 0.839844 -0.59375 0.964844 -0.59375 C 1.085938 -0.59375 1.191406 -0.546875 1.289062 -0.453125 C 1.382812 -0.359375 1.429688 -0.226562 1.429688 -0.0585938 Z "/>
</g>
<g id="glyph-0-7">
<path d="M 0.835938 -1.929688 C 0.835938 -1.316406 0.957031 -0.863281 1.195312 -0.566406 C 1.4375 -0.273438 1.734375 -0.128906 2.085938 -0.128906 C 2.429688 -0.128906 2.722656 -0.269531 2.964844 -0.558594 C 3.210938 -0.84375 3.332031 -1.300781 3.332031 -1.929688 C 3.332031 -2.566406 3.207031 -3.023438 2.960938 -3.308594 C 2.714844 -3.589844 2.421875 -3.730469 2.085938 -3.730469 C 1.734375 -3.730469 1.441406 -3.585938 1.199219 -3.292969 C 0.957031 -3 0.835938 -2.542969 0.835938 -1.929688 Z M 0.171875 -1.929688 C 0.171875 -2.550781 0.371094 -3.050781 0.761719 -3.425781 C 1.121094 -3.769531 1.5625 -3.941406 2.085938 -3.941406 C 2.609375 -3.941406 3.054688 -3.769531 3.410156 -3.421875 C 3.800781 -3.050781 3.996094 -2.550781 3.996094 -1.929688 C 3.996094 -1.296875 3.792969 -0.792969 3.390625 -0.417969 C 3.03125 -0.0859375 2.59375 0.0820312 2.085938 0.0820312 C 1.539062 0.0820312 1.085938 -0.101562 0.722656 -0.472656 C 0.355469 -0.851562 0.171875 -1.335938 0.171875 -1.929688 Z "/>
</g>
<g id="glyph-0-8">
<path d="M 0.953125 0.0664062 C 0.859375 0.0664062 0.785156 0.0351562 0.71875 -0.0273438 C 0.65625 -0.0898438 0.625 -0.167969 0.625 -0.257812 C 0.625 -0.347656 0.660156 -0.421875 0.722656 -0.484375 C 0.785156 -0.546875 0.863281 -0.578125 0.953125 -0.578125 C 1.042969 -0.578125 1.117188 -0.546875 1.179688 -0.484375 C 1.242188 -0.421875 1.273438 -0.34375 1.273438 -0.257812 C 1.273438 -0.167969 1.242188 -0.0898438 1.179688 -0.0273438 C 1.117188 0.0351562 1.042969 0.0664062 0.953125 0.0664062 Z "/>
</g>
<g id="glyph-0-9">
<path d="M 0.269531 -1.464844 C 0.269531 -2.125 0.464844 -2.703125 0.859375 -3.203125 C 1.101562 -3.507812 1.390625 -3.753906 1.71875 -3.941406 L 1.773438 -3.847656 C 1.46875 -3.605469 1.25 -3.367188 1.121094 -3.136719 C 0.890625 -2.738281 0.773438 -2.203125 0.773438 -1.539062 C 0.773438 -1.042969 0.820312 -0.636719 0.90625 -0.316406 C 1.058594 0.246094 1.347656 0.667969 1.773438 0.945312 L 1.699219 1.039062 C 1.464844 0.925781 1.214844 0.707031 0.941406 0.382812 C 0.492188 -0.160156 0.269531 -0.773438 0.269531 -1.464844 Z "/>
</g>
<g id="glyph-0-10">
<path d="M 0.171875 -0.0664062 C 0.867188 -0.789062 1.339844 -1.316406 1.589844 -1.65625 C 1.839844 -1.992188 1.960938 -2.320312 1.960938 -2.644531 C 1.960938 -2.925781 1.886719 -3.136719 1.734375 -3.285156 C 1.582031 -3.433594 1.402344 -3.507812 1.191406 -3.507812 C 0.929688 -3.507812 0.71875 -3.410156 0.558594 -3.222656 C 0.46875 -3.117188 0.382812 -2.957031 0.300781 -2.738281 L 0.179688 -2.765625 C 0.273438 -3.203125 0.433594 -3.503906 0.664062 -3.675781 C 0.890625 -3.84375 1.132812 -3.929688 1.394531 -3.929688 C 1.714844 -3.929688 1.972656 -3.828125 2.171875 -3.628906 C 2.371094 -3.425781 2.46875 -3.175781 2.46875 -2.886719 C 2.46875 -2.574219 2.363281 -2.273438 2.148438 -1.984375 C 1.933594 -1.695312 1.464844 -1.183594 0.75 -0.445312 L 2.054688 -0.445312 C 2.238281 -0.445312 2.367188 -0.464844 2.441406 -0.511719 C 2.515625 -0.554688 2.597656 -0.660156 2.691406 -0.828125 L 2.765625 -0.792969 L 2.449219 0 L 0.171875 0 Z "/>
</g>
<g id="glyph-0-11">
<path d="M 1.394531 -0.105469 C 1.675781 -0.105469 1.867188 -0.257812 1.972656 -0.5625 C 2.074219 -0.871094 2.128906 -1.3125 2.128906 -1.890625 C 2.128906 -2.351562 2.097656 -2.722656 2.035156 -2.996094 C 1.917969 -3.507812 1.695312 -3.765625 1.371094 -3.765625 C 1.050781 -3.765625 0.828125 -3.5 0.710938 -2.972656 C 0.648438 -2.691406 0.613281 -2.320312 0.613281 -1.863281 C 0.613281 -1.433594 0.648438 -1.085938 0.710938 -0.828125 C 0.832031 -0.347656 1.0625 -0.105469 1.394531 -0.105469 Z M 1.386719 -3.917969 C 1.824219 -3.917969 2.164062 -3.691406 2.402344 -3.234375 C 2.59375 -2.863281 2.691406 -2.4375 2.691406 -1.957031 C 2.691406 -1.578125 2.632812 -1.222656 2.515625 -0.886719 C 2.292969 -0.257812 1.910156 0.0546875 1.363281 0.0546875 C 0.988281 0.0546875 0.679688 -0.117188 0.4375 -0.457031 C 0.179688 -0.820312 0.0507812 -1.3125 0.0507812 -1.933594 C 0.0507812 -2.421875 0.136719 -2.84375 0.308594 -3.199219 C 0.542969 -3.679688 0.902344 -3.917969 1.386719 -3.917969 Z "/>
</g>
<g id="glyph-0-12">
<path d="M 1.726562 -3.914062 C 1.734375 -3.902344 1.738281 -3.898438 1.738281 -3.890625 C 1.738281 -3.886719 1.738281 -3.875 1.738281 -3.859375 L 1.738281 -0.429688 C 1.738281 -0.285156 1.777344 -0.191406 1.855469 -0.152344 C 1.933594 -0.113281 2.082031 -0.0859375 2.292969 -0.078125 L 2.292969 0 L 0.6875 0 L 0.6875 -0.0859375 C 0.917969 -0.0976562 1.066406 -0.128906 1.136719 -0.179688 C 1.207031 -0.230469 1.242188 -0.339844 1.242188 -0.511719 L 1.242188 -3.148438 C 1.242188 -3.242188 1.230469 -3.308594 1.207031 -3.359375 C 1.183594 -3.40625 1.136719 -3.429688 1.058594 -3.429688 C 1.011719 -3.429688 0.945312 -3.414062 0.867188 -3.386719 C 0.789062 -3.359375 0.714844 -3.332031 0.648438 -3.300781 L 0.648438 -3.378906 L 1.691406 -3.914062 Z "/>
</g>
<g id="glyph-0-13">
<path d="M 1.457031 -1.632812 C 1.585938 -1.632812 1.71875 -1.667969 1.855469 -1.738281 C 1.992188 -1.8125 2.070312 -1.875 2.089844 -1.921875 C 2.097656 -1.941406 2.105469 -2.011719 2.109375 -2.132812 C 2.117188 -2.257812 2.117188 -2.355469 2.117188 -2.433594 C 2.117188 -2.828125 2.050781 -3.148438 1.917969 -3.394531 C 1.785156 -3.640625 1.59375 -3.765625 1.335938 -3.765625 C 1.148438 -3.765625 1 -3.679688 0.882812 -3.511719 C 0.769531 -3.34375 0.710938 -3.089844 0.710938 -2.753906 C 0.710938 -2.476562 0.765625 -2.21875 0.871094 -1.984375 C 0.980469 -1.75 1.175781 -1.632812 1.457031 -1.632812 Z M 1.375 -3.925781 C 1.792969 -3.925781 2.117188 -3.761719 2.34375 -3.429688 C 2.570312 -3.09375 2.6875 -2.722656 2.6875 -2.3125 C 2.6875 -2.023438 2.632812 -1.730469 2.523438 -1.433594 C 2.414062 -1.136719 2.257812 -0.867188 2.050781 -0.636719 C 1.808594 -0.367188 1.503906 -0.164062 1.132812 -0.0351562 C 0.925781 0.0390625 0.664062 0.0976562 0.351562 0.136719 L 0.320312 0.0234375 C 0.519531 -0.0234375 0.683594 -0.0703125 0.816406 -0.121094 C 1.050781 -0.214844 1.238281 -0.328125 1.382812 -0.464844 C 1.582031 -0.65625 1.742188 -0.871094 1.863281 -1.105469 C 1.984375 -1.34375 2.058594 -1.539062 2.089844 -1.699219 L 1.992188 -1.625 C 1.851562 -1.519531 1.683594 -1.445312 1.496094 -1.40625 C 1.398438 -1.382812 1.304688 -1.371094 1.226562 -1.371094 C 0.902344 -1.371094 0.644531 -1.488281 0.457031 -1.714844 C 0.269531 -1.945312 0.171875 -2.21875 0.171875 -2.535156 C 0.171875 -2.9375 0.285156 -3.273438 0.511719 -3.535156 C 0.738281 -3.796875 1.023438 -3.925781 1.375 -3.925781 Z "/>
</g>
<g id="glyph-0-14">
<path d="M 1.660156 -1.433594 C 1.660156 -1.152344 1.625 -0.886719 1.550781 -0.632812 C 1.476562 -0.378906 1.367188 -0.140625 1.226562 0.0820312 C 1.074219 0.320312 0.875 0.546875 0.625 0.75 C 0.457031 0.886719 0.320312 0.984375 0.207031 1.039062 L 0.152344 0.945312 C 0.445312 0.722656 0.660156 0.496094 0.792969 0.265625 C 1.035156 -0.144531 1.152344 -0.6875 1.152344 -1.363281 C 1.152344 -1.90625 1.097656 -2.351562 0.988281 -2.695312 C 0.835938 -3.183594 0.554688 -3.570312 0.152344 -3.847656 L 0.226562 -3.941406 C 0.527344 -3.773438 0.808594 -3.523438 1.066406 -3.183594 C 1.460938 -2.664062 1.660156 -2.082031 1.660156 -1.433594 Z "/>
</g>
<g id="glyph-0-15">
<path d="M 1.160156 -1.996094 C 1.578125 -2.011719 1.878906 -2.054688 2.058594 -2.128906 C 2.367188 -2.253906 2.523438 -2.492188 2.523438 -2.84375 C 2.523438 -3.183594 2.386719 -3.414062 2.109375 -3.539062 C 1.960938 -3.605469 1.761719 -3.636719 1.519531 -3.636719 C 1.351562 -3.636719 1.25 -3.625 1.214844 -3.601562 C 1.179688 -3.578125 1.160156 -3.523438 1.160156 -3.433594 Z M 0.0664062 -0.105469 C 0.289062 -0.125 0.429688 -0.171875 0.484375 -0.238281 C 0.539062 -0.304688 0.566406 -0.457031 0.566406 -0.699219 L 0.566406 -3.226562 C 0.566406 -3.433594 0.535156 -3.566406 0.472656 -3.628906 C 0.410156 -3.691406 0.277344 -3.734375 0.0664062 -3.75 L 0.0664062 -3.859375 L 1.679688 -3.859375 C 2.015625 -3.859375 2.296875 -3.816406 2.519531 -3.730469 C 2.945312 -3.570312 3.160156 -3.273438 3.160156 -2.839844 C 3.160156 -2.550781 3.0625 -2.324219 2.875 -2.171875 C 2.6875 -2.015625 2.429688 -1.910156 2.105469 -1.863281 L 3.308594 -0.382812 C 3.382812 -0.292969 3.453125 -0.226562 3.527344 -0.183594 C 3.601562 -0.144531 3.699219 -0.117188 3.8125 -0.105469 L 3.8125 0 L 2.875 0 L 1.484375 -1.792969 L 1.160156 -1.78125 L 1.160156 -0.632812 C 1.160156 -0.414062 1.191406 -0.277344 1.257812 -0.222656 C 1.324219 -0.164062 1.464844 -0.125 1.6875 -0.105469 L 1.6875 0 L 0.0664062 0 Z "/>
</g>
<g id="glyph-0-16">
<path d="M 0.148438 -1.320312 C 0.148438 -1.699219 0.269531 -2.019531 0.507812 -2.28125 C 0.75 -2.542969 1.058594 -2.671875 1.433594 -2.671875 C 1.8125 -2.671875 2.121094 -2.546875 2.371094 -2.300781 C 2.617188 -2.054688 2.738281 -1.726562 2.738281 -1.316406 C 2.738281 -0.9375 2.621094 -0.609375 2.382812 -0.332031 C 2.140625 -0.0507812 1.832031 0.0898438 1.453125 0.0898438 C 1.089844 0.0898438 0.78125 -0.046875 0.527344 -0.3125 C 0.273438 -0.582031 0.148438 -0.917969 0.148438 -1.320312 Z M 1.355469 -2.5 C 1.207031 -2.5 1.074219 -2.453125 0.964844 -2.351562 C 0.777344 -2.179688 0.679688 -1.882812 0.679688 -1.457031 C 0.679688 -1.121094 0.757812 -0.804688 0.910156 -0.511719 C 1.0625 -0.21875 1.273438 -0.0742188 1.546875 -0.0742188 C 1.757812 -0.0742188 1.921875 -0.171875 2.039062 -0.367188 C 2.152344 -0.5625 2.210938 -0.820312 2.210938 -1.136719 C 2.210938 -1.464844 2.136719 -1.773438 1.992188 -2.066406 C 1.84375 -2.355469 1.632812 -2.5 1.355469 -2.5 Z "/>
</g>
<g id="glyph-0-17">
<path d="M 2.710938 -2.558594 C 2.597656 -2.542969 2.511719 -2.523438 2.457031 -2.5 C 2.402344 -2.476562 2.375 -2.425781 2.375 -2.351562 C 2.375 -2.3125 2.382812 -2.269531 2.394531 -2.230469 C 2.40625 -2.1875 2.421875 -2.136719 2.445312 -2.078125 L 2.960938 -0.726562 L 3.46875 -1.960938 C 3.492188 -2.015625 3.515625 -2.085938 3.542969 -2.171875 C 3.570312 -2.257812 3.582031 -2.324219 3.582031 -2.367188 C 3.582031 -2.4375 3.5625 -2.484375 3.515625 -2.507812 C 3.472656 -2.535156 3.410156 -2.550781 3.328125 -2.5625 L 3.328125 -2.644531 L 4.050781 -2.644531 L 4.050781 -2.5625 C 4.003906 -2.554688 3.964844 -2.53125 3.933594 -2.496094 C 3.902344 -2.460938 3.859375 -2.375 3.804688 -2.238281 L 2.894531 0.0078125 C 2.886719 0.0234375 2.878906 0.0390625 2.875 0.046875 C 2.867188 0.0546875 2.859375 0.0585938 2.847656 0.0585938 C 2.824219 0.046875 2.8125 0.0351562 2.808594 0.0273438 L 2.164062 -1.5625 L 1.414062 0.0234375 C 1.410156 0.03125 1.40625 0.0390625 1.398438 0.046875 C 1.394531 0.0546875 1.386719 0.0585938 1.375 0.0585938 C 1.351562 0.046875 1.339844 0.0351562 1.335938 0.0273438 L 0.484375 -2.070312 C 0.390625 -2.300781 0.328125 -2.4375 0.300781 -2.476562 C 0.269531 -2.515625 0.207031 -2.542969 0.121094 -2.558594 L 0.121094 -2.644531 L 1.171875 -2.644531 L 1.171875 -2.558594 C 1.085938 -2.550781 1.019531 -2.535156 0.972656 -2.511719 C 0.925781 -2.488281 0.902344 -2.4375 0.902344 -2.359375 C 0.902344 -2.304688 0.941406 -2.167969 1.019531 -1.953125 C 1.066406 -1.832031 1.125 -1.679688 1.195312 -1.503906 L 1.519531 -0.695312 L 2.03125 -1.792969 L 2.035156 -1.828125 C 2.035156 -1.867188 2.015625 -1.9375 1.976562 -2.039062 C 1.933594 -2.144531 1.894531 -2.238281 1.855469 -2.320312 C 1.820312 -2.40625 1.777344 -2.464844 1.726562 -2.496094 C 1.679688 -2.53125 1.609375 -2.550781 1.523438 -2.558594 L 1.523438 -2.644531 L 2.710938 -2.644531 Z "/>
</g>
<g id="glyph-0-18">
<path d="M 0.09375 -0.105469 C 0.320312 -0.128906 0.464844 -0.171875 0.519531 -0.230469 C 0.578125 -0.292969 0.605469 -0.449219 0.605469 -0.699219 L 0.605469 -3.226562 C 0.605469 -3.4375 0.574219 -3.570312 0.511719 -3.632812 C 0.449219 -3.695312 0.308594 -3.734375 0.09375 -3.75 L 0.09375 -3.859375 L 1.714844 -3.859375 L 1.714844 -3.75 C 1.5 -3.734375 1.359375 -3.695312 1.296875 -3.632812 C 1.230469 -3.570312 1.199219 -3.4375 1.199219 -3.226562 L 1.199219 -2.089844 L 2.96875 -2.089844 L 2.96875 -3.226562 C 2.96875 -3.4375 2.9375 -3.570312 2.875 -3.632812 C 2.8125 -3.695312 2.671875 -3.734375 2.457031 -3.75 L 2.457031 -3.859375 L 4.074219 -3.859375 L 4.074219 -3.75 C 3.859375 -3.734375 3.722656 -3.695312 3.660156 -3.632812 C 3.59375 -3.570312 3.5625 -3.4375 3.5625 -3.226562 L 3.5625 -0.632812 C 3.5625 -0.417969 3.59375 -0.285156 3.660156 -0.222656 C 3.722656 -0.164062 3.859375 -0.125 4.074219 -0.105469 L 4.074219 0 L 2.457031 0 L 2.457031 -0.105469 C 2.683594 -0.128906 2.828125 -0.171875 2.882812 -0.230469 C 2.9375 -0.292969 2.96875 -0.449219 2.96875 -0.699219 L 2.96875 -1.835938 L 1.199219 -1.835938 L 1.199219 -0.632812 C 1.199219 -0.417969 1.230469 -0.28125 1.296875 -0.222656 C 1.359375 -0.160156 1.5 -0.121094 1.714844 -0.105469 L 1.714844 0 L 0.09375 0 Z "/>
</g>
<g id="glyph-0-19">
<path d="M 1.671875 -1.578125 C 1.453125 -1.503906 1.273438 -1.425781 1.128906 -1.339844 C 0.855469 -1.171875 0.71875 -0.976562 0.71875 -0.761719 C 0.71875 -0.589844 0.777344 -0.464844 0.890625 -0.382812 C 0.964844 -0.328125 1.046875 -0.300781 1.140625 -0.300781 C 1.265625 -0.300781 1.382812 -0.335938 1.5 -0.40625 C 1.613281 -0.476562 1.671875 -0.566406 1.671875 -0.675781 Z M 0.214844 -0.566406 C 0.214844 -0.84375 0.351562 -1.070312 0.625 -1.257812 C 0.800781 -1.371094 1.148438 -1.523438 1.671875 -1.71875 L 1.671875 -1.960938 C 1.671875 -2.15625 1.652344 -2.289062 1.613281 -2.367188 C 1.550781 -2.496094 1.417969 -2.558594 1.214844 -2.558594 C 1.117188 -2.558594 1.023438 -2.53125 0.9375 -2.484375 C 0.851562 -2.433594 0.804688 -2.363281 0.804688 -2.273438 C 0.804688 -2.25 0.8125 -2.210938 0.820312 -2.15625 C 0.828125 -2.101562 0.835938 -2.070312 0.835938 -2.054688 C 0.835938 -1.949219 0.800781 -1.875 0.730469 -1.832031 C 0.691406 -1.808594 0.640625 -1.792969 0.585938 -1.792969 C 0.5 -1.792969 0.4375 -1.824219 0.390625 -1.878906 C 0.34375 -1.933594 0.320312 -1.996094 0.320312 -2.066406 C 0.320312 -2.199219 0.402344 -2.335938 0.566406 -2.480469 C 0.730469 -2.625 0.972656 -2.699219 1.289062 -2.699219 C 1.65625 -2.699219 1.910156 -2.582031 2.039062 -2.339844 C 2.109375 -2.210938 2.144531 -2.019531 2.144531 -1.769531 L 2.144531 -0.625 C 2.144531 -0.515625 2.152344 -0.441406 2.167969 -0.398438 C 2.191406 -0.324219 2.242188 -0.289062 2.320312 -0.289062 C 2.363281 -0.289062 2.402344 -0.292969 2.429688 -0.308594 C 2.457031 -0.320312 2.507812 -0.351562 2.578125 -0.40625 L 2.578125 -0.257812 C 2.515625 -0.183594 2.453125 -0.121094 2.382812 -0.0742188 C 2.273438 -0.00390625 2.167969 0.0351562 2.054688 0.0351562 C 1.925781 0.0351562 1.832031 -0.0078125 1.777344 -0.0898438 C 1.71875 -0.175781 1.6875 -0.273438 1.679688 -0.390625 C 1.535156 -0.265625 1.414062 -0.171875 1.308594 -0.109375 C 1.136719 -0.0078125 0.972656 0.0429688 0.816406 0.0429688 C 0.652344 0.0429688 0.511719 -0.015625 0.394531 -0.128906 C 0.273438 -0.246094 0.214844 -0.390625 0.214844 -0.566406 Z "/>
</g>
<g id="glyph-0-20">
<path d="M 0.09375 -0.0742188 C 0.242188 -0.0859375 0.339844 -0.113281 0.390625 -0.148438 C 0.464844 -0.203125 0.503906 -0.3125 0.503906 -0.476562 L 0.503906 -1.949219 C 0.503906 -2.089844 0.484375 -2.183594 0.449219 -2.226562 C 0.410156 -2.269531 0.351562 -2.292969 0.265625 -2.292969 C 0.226562 -2.292969 0.195312 -2.289062 0.175781 -2.285156 C 0.15625 -2.28125 0.132812 -2.277344 0.105469 -2.265625 L 0.105469 -2.367188 L 0.308594 -2.433594 C 0.382812 -2.460938 0.507812 -2.503906 0.675781 -2.570312 C 0.84375 -2.632812 0.933594 -2.664062 0.941406 -2.664062 C 0.953125 -2.664062 0.957031 -2.660156 0.960938 -2.652344 C 0.960938 -2.640625 0.960938 -2.625 0.960938 -2.597656 L 0.960938 -2.214844 C 1.148438 -2.382812 1.3125 -2.503906 1.449219 -2.566406 C 1.585938 -2.632812 1.726562 -2.664062 1.871094 -2.664062 C 2.066406 -2.664062 2.222656 -2.597656 2.339844 -2.464844 C 2.398438 -2.394531 2.449219 -2.296875 2.488281 -2.171875 C 2.628906 -2.316406 2.753906 -2.421875 2.855469 -2.488281 C 3.035156 -2.605469 3.222656 -2.664062 3.410156 -2.664062 C 3.714844 -2.664062 3.917969 -2.542969 4.023438 -2.292969 C 4.082031 -2.152344 4.109375 -1.929688 4.109375 -1.625 L 4.109375 -0.445312 C 4.109375 -0.308594 4.140625 -0.21875 4.199219 -0.167969 C 4.257812 -0.121094 4.367188 -0.0898438 4.523438 -0.0742188 L 4.523438 0 L 3.238281 0 L 3.238281 -0.078125 C 3.402344 -0.09375 3.511719 -0.128906 3.566406 -0.179688 C 3.617188 -0.230469 3.644531 -0.335938 3.644531 -0.492188 L 3.644531 -1.71875 C 3.644531 -1.902344 3.621094 -2.039062 3.582031 -2.128906 C 3.511719 -2.285156 3.375 -2.359375 3.171875 -2.359375 C 3.046875 -2.359375 2.925781 -2.320312 2.800781 -2.238281 C 2.730469 -2.191406 2.644531 -2.113281 2.542969 -2.011719 L 2.542969 -0.550781 C 2.542969 -0.398438 2.570312 -0.28125 2.625 -0.203125 C 2.679688 -0.121094 2.792969 -0.078125 2.96875 -0.0742188 L 2.96875 0 L 1.660156 0 L 1.660156 -0.0742188 C 1.839844 -0.0976562 1.957031 -0.140625 2.003906 -0.203125 C 2.054688 -0.269531 2.078125 -0.429688 2.078125 -0.679688 L 2.078125 -1.476562 C 2.078125 -1.769531 2.058594 -1.972656 2.023438 -2.082031 C 1.960938 -2.269531 1.828125 -2.359375 1.625 -2.359375 C 1.507812 -2.359375 1.394531 -2.328125 1.28125 -2.265625 C 1.167969 -2.203125 1.070312 -2.117188 0.984375 -2.015625 L 0.984375 -0.457031 C 0.984375 -0.3125 1.011719 -0.214844 1.0625 -0.160156 C 1.113281 -0.105469 1.222656 -0.0742188 1.390625 -0.0742188 L 1.390625 0 L 0.09375 0 Z "/>
</g>
<g id="glyph-0-21">
<path d="M 1.335938 -2.671875 C 1.605469 -2.671875 1.839844 -2.578125 2.039062 -2.394531 C 2.242188 -2.207031 2.339844 -1.945312 2.339844 -1.605469 L 0.53125 -1.605469 C 0.550781 -1.164062 0.652344 -0.84375 0.832031 -0.644531 C 1.011719 -0.441406 1.226562 -0.339844 1.472656 -0.339844 C 1.671875 -0.339844 1.839844 -0.394531 1.976562 -0.5 C 2.113281 -0.601562 2.238281 -0.75 2.355469 -0.941406 L 2.457031 -0.910156 C 2.378906 -0.667969 2.230469 -0.445312 2.019531 -0.238281 C 1.804688 -0.0351562 1.542969 0.0664062 1.234375 0.0664062 C 0.875 0.0664062 0.601562 -0.0664062 0.40625 -0.335938 C 0.210938 -0.605469 0.113281 -0.917969 0.113281 -1.265625 C 0.113281 -1.648438 0.226562 -1.976562 0.453125 -2.253906 C 0.679688 -2.53125 0.972656 -2.671875 1.335938 -2.671875 Z M 1.171875 -2.464844 C 0.953125 -2.464844 0.789062 -2.367188 0.675781 -2.175781 C 0.613281 -2.074219 0.570312 -1.945312 0.542969 -1.789062 L 1.746094 -1.789062 C 1.726562 -1.980469 1.6875 -2.121094 1.636719 -2.214844 C 1.542969 -2.378906 1.390625 -2.464844 1.171875 -2.464844 Z "/>
</g>
<g id="glyph-0-22">
<path d="M 0.0273438 -0.09375 C 0.199219 -0.109375 0.316406 -0.140625 0.375 -0.1875 C 0.429688 -0.234375 0.457031 -0.332031 0.457031 -0.484375 L 0.457031 -1.769531 C 0.457031 -1.957031 0.441406 -2.089844 0.40625 -2.171875 C 0.371094 -2.253906 0.308594 -2.292969 0.214844 -2.292969 C 0.195312 -2.292969 0.167969 -2.289062 0.136719 -2.285156 C 0.105469 -2.28125 0.0742188 -2.273438 0.0390625 -2.265625 L 0.0390625 -2.359375 C 0.148438 -2.398438 0.257812 -2.4375 0.375 -2.476562 C 0.488281 -2.515625 0.566406 -2.546875 0.609375 -2.5625 C 0.703125 -2.597656 0.800781 -2.640625 0.902344 -2.6875 C 0.914062 -2.6875 0.925781 -2.679688 0.925781 -2.671875 C 0.929688 -2.664062 0.929688 -2.640625 0.929688 -2.613281 L 0.929688 -2.144531 C 1.050781 -2.3125 1.171875 -2.445312 1.28125 -2.539062 C 1.394531 -2.636719 1.511719 -2.683594 1.636719 -2.683594 C 1.730469 -2.683594 1.808594 -2.652344 1.871094 -2.597656 C 1.933594 -2.539062 1.960938 -2.464844 1.960938 -2.378906 C 1.960938 -2.300781 1.9375 -2.234375 1.894531 -2.183594 C 1.847656 -2.128906 1.789062 -2.101562 1.71875 -2.101562 C 1.644531 -2.101562 1.574219 -2.136719 1.5 -2.203125 C 1.425781 -2.269531 1.367188 -2.300781 1.328125 -2.300781 C 1.261719 -2.300781 1.179688 -2.246094 1.082031 -2.140625 C 0.984375 -2.03125 0.9375 -1.921875 0.9375 -1.808594 L 0.9375 -0.523438 C 0.9375 -0.359375 0.976562 -0.246094 1.050781 -0.183594 C 1.125 -0.121094 1.253906 -0.0898438 1.429688 -0.09375 L 1.429688 0 L 0.0273438 0 Z "/>
</g>
<g id="glyph-0-23">
<path d="M 0.476562 -3.675781 C 0.476562 -3.757812 0.507812 -3.828125 0.5625 -3.886719 C 0.621094 -3.945312 0.691406 -3.976562 0.773438 -3.976562 C 0.855469 -3.976562 0.925781 -3.945312 0.984375 -3.890625 C 1.042969 -3.832031 1.070312 -3.761719 1.070312 -3.675781 C 1.070312 -3.59375 1.042969 -3.527344 0.984375 -3.46875 C 0.925781 -3.410156 0.855469 -3.378906 0.773438 -3.378906 C 0.691406 -3.378906 0.621094 -3.410156 0.5625 -3.46875 C 0.507812 -3.527344 0.476562 -3.59375 0.476562 -3.675781 Z M 0.113281 -0.078125 C 0.316406 -0.0976562 0.445312 -0.132812 0.5 -0.183594 C 0.550781 -0.234375 0.578125 -0.371094 0.578125 -0.59375 L 0.578125 -1.949219 C 0.578125 -2.074219 0.570312 -2.160156 0.550781 -2.207031 C 0.523438 -2.285156 0.464844 -2.324219 0.375 -2.324219 C 0.351562 -2.324219 0.332031 -2.320312 0.3125 -2.320312 C 0.292969 -2.316406 0.234375 -2.300781 0.140625 -2.273438 L 0.140625 -2.359375 L 0.261719 -2.402344 C 0.59375 -2.507812 0.824219 -2.589844 0.957031 -2.644531 C 1.011719 -2.667969 1.042969 -2.679688 1.058594 -2.679688 C 1.0625 -2.667969 1.066406 -2.652344 1.066406 -2.636719 L 1.066406 -0.59375 C 1.066406 -0.375 1.089844 -0.238281 1.144531 -0.183594 C 1.195312 -0.128906 1.3125 -0.09375 1.5 -0.078125 L 1.5 0 L 0.113281 0 Z "/>
</g>
<g id="glyph-0-24">
<path d="M 0.105469 -0.078125 C 0.238281 -0.0976562 0.335938 -0.128906 0.390625 -0.179688 C 0.445312 -0.230469 0.46875 -0.34375 0.46875 -0.519531 L 0.46875 -1.960938 C 0.46875 -2.082031 0.457031 -2.167969 0.4375 -2.21875 C 0.398438 -2.289062 0.324219 -2.328125 0.214844 -2.328125 C 0.195312 -2.328125 0.179688 -2.324219 0.160156 -2.324219 C 0.144531 -2.320312 0.121094 -2.320312 0.09375 -2.316406 L 0.09375 -2.414062 C 0.171875 -2.4375 0.355469 -2.496094 0.648438 -2.59375 L 0.914062 -2.679688 C 0.925781 -2.679688 0.9375 -2.675781 0.9375 -2.664062 C 0.941406 -2.65625 0.941406 -2.644531 0.941406 -2.625 L 0.941406 -2.207031 C 1.117188 -2.371094 1.253906 -2.484375 1.351562 -2.542969 C 1.5 -2.636719 1.65625 -2.683594 1.8125 -2.683594 C 1.941406 -2.683594 2.0625 -2.644531 2.167969 -2.570312 C 2.371094 -2.425781 2.476562 -2.171875 2.476562 -1.800781 L 2.476562 -0.46875 C 2.476562 -0.332031 2.503906 -0.234375 2.558594 -0.171875 C 2.613281 -0.113281 2.703125 -0.0820312 2.832031 -0.078125 L 2.832031 0 L 1.617188 0 L 1.617188 -0.078125 C 1.757812 -0.0976562 1.851562 -0.136719 1.910156 -0.195312 C 1.964844 -0.253906 1.992188 -0.378906 1.992188 -0.574219 L 1.992188 -1.789062 C 1.992188 -1.953125 1.960938 -2.085938 1.898438 -2.195312 C 1.839844 -2.300781 1.726562 -2.355469 1.5625 -2.355469 C 1.453125 -2.355469 1.335938 -2.316406 1.222656 -2.242188 C 1.15625 -2.199219 1.074219 -2.125 0.972656 -2.023438 L 0.972656 -0.429688 C 0.972656 -0.292969 1 -0.203125 1.0625 -0.15625 C 1.125 -0.109375 1.21875 -0.0820312 1.351562 -0.078125 L 1.351562 0 L 0.105469 0 Z "/>
</g>
<g id="glyph-0-25">
<path d="M 1.199219 -0.449219 C 1.199219 -0.355469 1.222656 -0.292969 1.269531 -0.261719 C 1.316406 -0.230469 1.410156 -0.214844 1.558594 -0.214844 C 2.015625 -0.214844 2.386719 -0.308594 2.683594 -0.488281 C 3.136719 -0.765625 3.359375 -1.238281 3.359375 -1.910156 C 3.359375 -2.507812 3.175781 -2.957031 2.800781 -3.257812 C 2.484375 -3.515625 2.0625 -3.644531 1.535156 -3.644531 C 1.402344 -3.644531 1.316406 -3.632812 1.269531 -3.601562 C 1.222656 -3.574219 1.199219 -3.511719 1.199219 -3.414062 Z M 0.09375 -0.105469 C 0.304688 -0.128906 0.445312 -0.167969 0.511719 -0.222656 C 0.574219 -0.277344 0.605469 -0.410156 0.605469 -0.632812 L 0.605469 -3.226562 C 0.605469 -3.441406 0.574219 -3.578125 0.511719 -3.636719 C 0.449219 -3.699219 0.308594 -3.734375 0.09375 -3.75 L 0.09375 -3.859375 L 1.667969 -3.859375 C 2.195312 -3.859375 2.644531 -3.773438 3.011719 -3.597656 C 3.671875 -3.285156 4 -2.722656 4 -1.917969 C 4 -1.625 3.941406 -1.351562 3.824219 -1.089844 C 3.707031 -0.828125 3.527344 -0.605469 3.285156 -0.425781 C 3.132812 -0.3125 2.976562 -0.222656 2.8125 -0.164062 C 2.515625 -0.0546875 2.148438 0 1.714844 0 L 0.09375 0 Z "/>
</g>
<g id="glyph-0-26">
<path d="M 2.601562 -1.5 L 1.929688 -3.105469 L 1.261719 -1.5 Z M 0.0859375 0 L 0.0859375 -0.105469 C 0.234375 -0.121094 0.347656 -0.179688 0.421875 -0.277344 C 0.496094 -0.375 0.625 -0.636719 0.808594 -1.066406 L 2.023438 -3.925781 L 2.140625 -3.925781 L 3.589844 -0.621094 C 3.6875 -0.402344 3.765625 -0.265625 3.824219 -0.210938 C 3.882812 -0.160156 3.980469 -0.125 4.117188 -0.105469 L 4.117188 0 L 2.632812 0 L 2.632812 -0.105469 C 2.804688 -0.121094 2.914062 -0.140625 2.960938 -0.160156 C 3.011719 -0.183594 3.035156 -0.238281 3.035156 -0.320312 C 3.035156 -0.351562 3.027344 -0.402344 3.007812 -0.472656 C 2.988281 -0.542969 2.960938 -0.621094 2.929688 -0.699219 L 2.6875 -1.261719 L 1.160156 -1.261719 C 1.007812 -0.878906 0.917969 -0.648438 0.886719 -0.5625 C 0.859375 -0.476562 0.84375 -0.410156 0.84375 -0.363281 C 0.84375 -0.261719 0.882812 -0.195312 0.960938 -0.15625 C 1.011719 -0.132812 1.105469 -0.117188 1.242188 -0.105469 L 1.242188 0 Z "/>
</g>
</g>
<image id="source-443" x="0" y="0" width="0" height="0"/>
<mask id="mask-0">
<use xlink:href="#source-443"/>
</mask>
</defs>
<g fill="rgb(73.333333%, 73.333333%, 73.333333%)" fill-opacity="1">
<use xlink:href="#glyph-0-0" x="30" y="24.375"/>
<use xlink:href="#glyph-0-1" x="32" y="24.375"/>
<use xlink:href="#glyph-0-2" x="33" y="24.375"/>
<use xlink:href="#glyph-0-3" x="38" y="24.375"/>
<use xlink:href="#glyph-0-4" x="41" y="24.375"/>
<use xlink:href="#glyph-0-5" x="43" y="24.375"/>
<use xlink:href="#glyph-0-3" x="45" y="24.375"/>
<use xlink:href="#glyph-0-6" x="48" y="24.375"/>
<use xlink:href="#glyph-0-1" x="49" y="24.375"/>
<use xlink:href="#glyph-0-7" x="50" y="24.375"/>
<use xlink:href="#glyph-0-8" x="54" y="24.375"/>
<use xlink:href="#glyph-0-1" x="55" y="24.375"/>
<use xlink:href="#glyph-0-9" x="56" y="24.375"/>
<use xlink:href="#glyph-0-10" x="58" y="24.375"/>
<use xlink:href="#glyph-0-11" x="61" y="24.375"/>
<use xlink:href="#glyph-0-12" x="64" y="24.375"/>
<use xlink:href="#glyph-0-13" x="67" y="24.375"/>
<use xlink:href="#glyph-0-14" x="70" y="24.375"/>
<use xlink:href="#glyph-0-8" x="72" y="24.375"/>
<use xlink:href="#glyph-0-1" x="73" y="24.375"/>
<use xlink:href="#glyph-0-15" x="74" y="24.375"/>
<use xlink:href="#glyph-0-16" x="78" y="24.375"/>
<use xlink:href="#glyph-0-17" x="81" y="24.375"/>
<use xlink:href="#glyph-0-18" x="85" y="24.375"/>
<use xlink:href="#glyph-0-19" x="89" y="24.375"/>
<use xlink:href="#glyph-0-20" x="92" y="24.375"/>
<use xlink:href="#glyph-0-20" x="97" y="24.375"/>
<use xlink:href="#glyph-0-21" x="102" y="24.375"/>
<use xlink:href="#glyph-0-22" x="105" y="24.375"/>
<use xlink:href="#glyph-0-1" x="107" y="24.375"/>
<use xlink:href="#glyph-0-23" x="108" y="24.375"/>
<use xlink:href="#glyph-0-24" x="110" y="24.375"/>
<use xlink:href="#glyph-0-1" x="113" y="24.375"/>
<use xlink:href="#glyph-0-25" x="114" y="24.375"/>
<use xlink:href="#glyph-0-15" x="118" y="24.375"/>
<use xlink:href="#glyph-0-26" x="122" y="24.375"/>
<use xlink:href="#glyph-0-2" x="126" y="24.375"/>
<use xlink:href="#glyph-0-8" x="131" y="24.375"/>
</g>
</svg>
