<?xml version="1.0" encoding="UTF-8"?>
<svg xmlns="http://www.w3.org/2000/svg" xmlns:xlink="http://www.w3.org/1999/xlink" width="854" height="480" viewBox="0 0 854 480">
<defs>
<g>
<g id="glyph-0-0">
<path d="M 1.386719 -3.675781 L 1.386719 -3.574219 C 1.277344 -3.570312 1.195312 -3.558594 1.148438 -3.542969 C 1.066406 -3.511719 1.027344 -3.457031 1.027344 -3.375 C 1.027344 -3.339844 1.03125 -3.304688 1.039062 -3.269531 C 1.050781 -3.234375 1.066406 -3.191406 1.085938 -3.136719 L 1.886719 -1.046875 L 2.480469 -2.613281 L 2.214844 -3.285156 C 2.167969 -3.40625 2.09375 -3.492188 1.996094 -3.53125 C 1.9375 -3.558594 1.851562 -3.570312 1.734375 -3.574219 L 1.734375 -3.675781 L 3.21875 -3.675781 L 3.21875 -3.574219 C 3.082031 -3.570312 2.984375 -3.5625 2.933594 -3.542969 C 2.851562 -3.511719 2.808594 -3.449219 2.808594 -3.351562 C 2.808594 -3.320312 2.8125 -3.292969 2.820312 -3.265625 C 2.828125 -3.242188 2.84375 -3.191406 2.871094 -3.117188 L 3.675781 -1.035156 L 4.371094 -2.917969 C 4.410156 -3.023438 4.4375 -3.121094 4.453125 -3.203125 C 4.460938 -3.25 4.464844 -3.289062 4.464844 -3.316406 C 4.464844 -3.421875 4.417969 -3.492188 4.320312 -3.53125 C 4.265625 -3.554688 4.183594 -3.570312 4.074219 -3.574219 L 4.074219 -3.675781 L 5.175781 -3.675781 L 5.175781 -3.574219 C 5.078125 -3.558594 5 -3.535156 4.949219 -3.503906 C 4.855469 -3.453125 4.785156 -3.363281 4.738281 -3.234375 L 4.144531 -1.582031 L 3.914062 -0.945312 L 3.582031 0.0664062 L 3.496094 0.0664062 L 3.273438 -0.578125 L 2.609375 -2.285156 L 1.753906 0.0664062 L 1.671875 0.0664062 L 1.273438 -1.089844 L 0.792969 -2.390625 C 0.597656 -2.925781 0.460938 -3.253906 0.382812 -3.375 C 0.308594 -3.496094 0.1875 -3.5625 0.0234375 -3.574219 L 0.0234375 -3.675781 Z "/>
</g>
<g id="glyph-0-1">
<path d="M 0.457031 -3.503906 C 0.457031 -3.582031 0.484375 -3.648438 0.539062 -3.703125 C 0.59375 -3.757812 0.660156 -3.785156 0.738281 -3.785156 C 0.816406 -3.785156 0.882812 -3.757812 0.9375 -3.703125 C 0.992188 -3.648438 1.019531 -3.582031 1.019531 -3.503906 C 1.019531 -3.425781 0.992188 -3.359375 0.9375 -3.304688 C 0.882812 -3.25 0.816406 -3.21875 0.738281 -3.21875 C 0.660156 -3.21875 0.589844 -3.246094 0.539062 -3.304688 C 0.484375 -3.359375 0.457031 -3.425781 0.457031 -3.503906 Z M 0.109375 -0.0742188 C 0.300781 -0.09375 0.425781 -0.128906 0.476562 -0.175781 C 0.527344 -0.222656 0.550781 -0.351562 0.550781 -0.5625 L 0.550781 -1.859375 C 0.550781 -1.976562 0.542969 -2.058594 0.527344 -2.101562 C 0.5 -2.175781 0.441406 -2.214844 0.355469 -2.214844 C 0.335938 -2.214844 0.316406 -2.210938 0.296875 -2.207031 C 0.277344 -2.203125 0.222656 -2.191406 0.132812 -2.164062 L 0.132812 -2.25 L 0.25 -2.285156 C 0.566406 -2.390625 0.785156 -2.46875 0.910156 -2.519531 C 0.960938 -2.542969 0.996094 -2.550781 1.007812 -2.550781 C 1.011719 -2.539062 1.015625 -2.527344 1.015625 -2.511719 L 1.015625 -0.5625 C 1.015625 -0.359375 1.039062 -0.230469 1.089844 -0.175781 C 1.140625 -0.125 1.25 -0.0898438 1.425781 -0.0742188 L 1.425781 0 L 0.109375 0 Z "/>
</g>
<g id="glyph-0-2">
<path d="M 0.21875 -1.425781 L 1.582031 -1.425781 L 1.582031 -1.078125 L 0.21875 -1.078125 Z "/>
</g>
<g id="glyph-0-3">
<path d="M 0.0625 -0.101562 C 0.28125 -0.125 0.417969 -0.164062 0.46875 -0.222656 C 0.523438 -0.277344 0.550781 -0.425781 0.550781 -0.667969 L 0.550781 -3.074219 C 0.550781 -3.269531 0.519531 -3.398438 0.460938 -3.460938 C 0.402344 -3.519531 0.269531 -3.558594 0.0625 -3.574219 L 0.0625 -3.675781 L 3.023438 -3.675781 L 3.039062 -2.878906 L 2.886719 -2.878906 C 2.847656 -3.132812 2.777344 -3.292969 2.671875 -3.363281 C 2.566406 -3.429688 2.359375 -3.464844 2.050781 -3.464844 L 1.292969 -3.464844 C 1.21875 -3.464844 1.167969 -3.453125 1.148438 -3.425781 C 1.128906 -3.402344 1.117188 -3.351562 1.117188 -3.277344 L 1.117188 -2.039062 L 1.921875 -2.039062 C 2.15625 -2.039062 2.308594 -2.074219 2.375 -2.144531 C 2.4375 -2.214844 2.492188 -2.355469 2.53125 -2.570312 L 2.660156 -2.570312 L 2.660156 -1.285156 L 2.53125 -1.285156 C 2.488281 -1.5 2.4375 -1.644531 2.371094 -1.714844 C 2.304688 -1.785156 2.15625 -1.816406 1.921875 -1.816406 L 1.117188 -1.816406 L 1.117188 -0.601562 C 1.117188 -0.398438 1.148438 -0.265625 1.210938 -0.210938 C 1.273438 -0.152344 1.410156 -0.117188 1.621094 -0.101562 L 1.621094 0 L 0.0625 0 Z "/>
</g>
<g id="glyph-0-4">
<rect x="0" y="0" width="0" height="0" mask="url(#mask-0)"/>
</g>
<g id="glyph-0-5">
<path d="M 2.597656 -1.234375 C 2.597656 -0.902344 2.492188 -0.605469 2.28125 -0.339844 C 2.066406 -0.0742188 1.792969 0.0585938 1.453125 0.0585938 C 1.132812 0.0585938 0.84375 -0.0898438 0.582031 -0.386719 C 0.320312 -0.6875 0.191406 -1.082031 0.191406 -1.578125 C 0.191406 -2.21875 0.441406 -2.765625 0.949219 -3.222656 C 1.402344 -3.605469 1.910156 -3.796875 2.472656 -3.796875 L 2.488281 -3.707031 C 2.261719 -3.667969 2.066406 -3.609375 1.902344 -3.539062 C 1.738281 -3.46875 1.59375 -3.367188 1.464844 -3.238281 C 1.332031 -3.109375 1.207031 -2.941406 1.09375 -2.742188 C 0.976562 -2.542969 0.898438 -2.34375 0.855469 -2.144531 C 0.96875 -2.214844 1.0625 -2.265625 1.144531 -2.296875 C 1.289062 -2.355469 1.433594 -2.382812 1.582031 -2.382812 C 1.871094 -2.382812 2.109375 -2.285156 2.304688 -2.085938 C 2.5 -1.886719 2.597656 -1.601562 2.597656 -1.234375 Z M 2.101562 -1.027344 C 2.101562 -1.265625 2.0625 -1.480469 1.988281 -1.664062 C 1.863281 -1.976562 1.648438 -2.132812 1.34375 -2.132812 C 1.0625 -2.132812 0.875 -2.050781 0.785156 -1.882812 C 0.730469 -1.785156 0.703125 -1.621094 0.703125 -1.394531 C 0.703125 -1.101562 0.765625 -0.8125 0.890625 -0.527344 C 1.015625 -0.246094 1.214844 -0.105469 1.488281 -0.105469 C 1.703125 -0.105469 1.859375 -0.199219 1.957031 -0.382812 C 2.054688 -0.566406 2.101562 -0.78125 2.101562 -1.027344 Z "/>
</g>
</g>
<image id="source-210" x="0" y="0" width="0" height="0"/>
<mask id="mask-0">
<use xlink:href="#source-210"/>
</mask>
</defs>
<g fill="rgb(96.862745%, 85.098039%, 43.529412%)" fill-opacity="1">
<use xlink:href="#glyph-0-0" x="30" y="24.166992"/>
<use xlink:href="#glyph-0-1" x="35" y="24.166992"/>
<use xlink:href="#glyph-0-2" x="36" y="24.166992"/>
<use xlink:href="#glyph-0-3" x="38" y="24.166992"/>
<use xlink:href="#glyph-0-1" x="41" y="24.166992"/>
<use xlink:href="#glyph-0-4" x="43" y="24.166992"/>
<use xlink:href="#glyph-0-5" x="44" y="24.166992"/>
</g>
</svg>
