<?xml version="1.0" encoding="UTF-8"?>
<svg xmlns="http://www.w3.org/2000/svg" xmlns:xlink="http://www.w3.org/1999/xlink" width="854" height="480" viewBox="0 0 854 480">
<defs>
<g>
<g id="glyph-0-0">
<path d="M 0.121094 -0.441406 C 0.121094 -0.535156 0.152344 -0.617188 0.214844 -0.679688 C 0.277344 -0.746094 0.359375 -0.777344 0.464844 -0.777344 C 0.597656 -0.777344 0.777344 -0.699219 1.003906 -0.535156 C 1.230469 -0.375 1.40625 -0.292969 1.53125 -0.292969 C 1.675781 -0.292969 1.804688 -0.34375 1.910156 -0.449219 C 2.015625 -0.550781 2.070312 -0.691406 2.070312 -0.867188 C 2.070312 -1.046875 2.007812 -1.195312 1.886719 -1.320312 C 1.765625 -1.445312 1.628906 -1.542969 1.476562 -1.613281 C 1.316406 -1.6875 1.132812 -1.738281 0.925781 -1.773438 C 0.792969 -1.796875 0.578125 -1.816406 0.28125 -1.835938 L 0.820312 -3.753906 L 2.609375 -3.753906 L 2.371094 -3.046875 L 0.828125 -3.046875 L 0.707031 -2.597656 C 1.136719 -2.582031 1.484375 -2.519531 1.753906 -2.410156 C 2.253906 -2.199219 2.507812 -1.828125 2.507812 -1.292969 C 2.507812 -0.902344 2.355469 -0.578125 2.054688 -0.328125 C 1.753906 -0.0742188 1.378906 0.0507812 0.925781 0.0507812 C 0.695312 0.0507812 0.503906 0.0078125 0.351562 -0.0859375 C 0.199219 -0.175781 0.121094 -0.292969 0.121094 -0.441406 Z "/>
</g>
<g id="glyph-0-1">
<path d="M 0.203125 -1.84375 C 0.203125 -2.398438 0.382812 -2.863281 0.738281 -3.242188 C 1.105469 -3.628906 1.578125 -3.824219 2.152344 -3.824219 C 2.382812 -3.824219 2.609375 -3.78125 2.835938 -3.695312 C 3.066406 -3.609375 3.207031 -3.566406 3.261719 -3.566406 C 3.324219 -3.566406 3.371094 -3.589844 3.40625 -3.628906 C 3.441406 -3.671875 3.472656 -3.734375 3.496094 -3.820312 L 3.652344 -3.820312 L 3.652344 -2.519531 L 3.511719 -2.519531 C 3.375 -2.800781 3.238281 -3.023438 3.101562 -3.1875 C 2.839844 -3.488281 2.546875 -3.636719 2.214844 -3.636719 C 1.859375 -3.636719 1.597656 -3.480469 1.433594 -3.171875 C 1.269531 -2.859375 1.183594 -2.421875 1.183594 -1.859375 C 1.183594 -1.394531 1.261719 -0.984375 1.414062 -0.621094 C 1.566406 -0.257812 1.863281 -0.0742188 2.300781 -0.0742188 C 2.539062 -0.0742188 2.695312 -0.125 2.777344 -0.226562 C 2.824219 -0.28125 2.847656 -0.367188 2.847656 -0.480469 L 2.847656 -1.066406 C 2.847656 -1.234375 2.796875 -1.34375 2.695312 -1.398438 C 2.628906 -1.429688 2.492188 -1.449219 2.285156 -1.453125 L 2.285156 -1.59375 L 4.191406 -1.59375 L 4.191406 -1.453125 C 4 -1.445312 3.871094 -1.40625 3.808594 -1.335938 C 3.746094 -1.265625 3.714844 -1.136719 3.714844 -0.945312 L 3.714844 -0.234375 C 3.59375 -0.160156 3.394531 -0.0859375 3.121094 -0.0078125 C 2.84375 0.0664062 2.539062 0.105469 2.199219 0.105469 C 1.582031 0.105469 1.085938 -0.0898438 0.71875 -0.476562 C 0.375 -0.839844 0.203125 -1.296875 0.203125 -1.84375 Z "/>
</g>
</g>
</defs>
<g fill="rgb(61.176471%, 86.27451%, 92.156863%)" fill-opacity="1">
<use xlink:href="#glyph-0-0" x="30" y="24.166992"/>
<use xlink:href="#glyph-0-1" x="33" y="24.166992"/>
</g>
</svg>
